<svg id="Layer_1" data-name="Layer 1" xmlns="http://www.w3.org/2000/svg" viewBox="0 0 800 520"><defs><style>.cls-1{fill:#fff;}.cls-2,.cls-3{fill:#b3b3b3;}.cls-2{fill-rule:evenodd;}.cls-4{fill:#9343e8;}.cls-5{fill:#faa628;}.cls-6{fill:#3bc8c7;}.cls-7{fill:none;stroke:#b3b3b3;stroke-miterlimit:10;stroke-width:2px;}.cls-8{font-size:11.29px;fill:#303030;font-family:ArialMT, Arial;}</style></defs><title>1</title><rect class="cls-1" width="800" height="520"/><path class="cls-2" d="M739.43,146.21a30.92,30.92,0,0,1,12.05,18h0s0,0,0,0l.06.24,0,.15a1.6,1.6,0,0,1,0,.21h0a31.66,31.66,0,0,1,.67,6.43c0,.22,0,.44,0,.66h0v.14c0,.07,0,0,0,0s0,.16,0,.07v0c0,.16-.07.34-.1.34s0,0,0,0,0-.33,0-.46,0-.18,0-.21,0-.22,0-.31v-.83l0-.31a1.73,1.73,0,0,1,0-.27s0-.12,0-.18,0-.31-.06-.46a.89.89,0,0,0-.06-.21.33.33,0,0,0,0-.12,2,2,0,0,1-.08-.36c0-.12-.06-.06-.08-.18s-.06-.26-.1-.26a.74.74,0,0,0-.08-.24,4.39,4.39,0,0,0-.11-.81.87.87,0,0,0-.08-.26s0-.18-.06-.17a1,1,0,0,0-.12-.38s-.08.1-.1-.08,0-.42,0-.36,0-.14,0-.2-.06-.17-.09-.2,0-.08-.05-.11a.72.72,0,0,1,0-.14c0-.12,0-.06-.05-.11a2.16,2.16,0,0,0-.14-.43.36.36,0,0,0-.13-.25.77.77,0,0,0-.13-.3s-.1,0-.09,0a2.93,2.93,0,0,1-.07-.41c0-.06,0-.06,0-.12s-.05-.23,0-.27a.32.32,0,0,0,0-.18s0,0,0,0,0,.13,0,.16a3.34,3.34,0,0,1,.07.72c0,.21-.15-.18-.17-.23s0-.11-.09-.13-.05-.11-.05-.14a.72.72,0,0,1-.1-.24s0-.15-.06-.17,0-.17-.1-.22,0-.08,0,0a8.13,8.13,0,0,0,.47,1.36c.12,0,.41,1.21.53,1.25,0,.29.35,1,.2.92,0,.42.26.51.29.78a.83.83,0,0,0,.08.22,7.71,7.71,0,0,1,.19,1.25c0,.09.22,1.13.27.91a5,5,0,0,0,.31,1.57,6.49,6.49,0,0,1,.28,1.36.75.75,0,0,1-.09.42s.09-.08.07.26c0,.62.07,0,.12,0s0,0,0-.07a31.57,31.57,0,0,1-.53,4h0a.9.9,0,0,0,0,.13l0,.08,0,.15v0c0-.12,0,0,0,0a.31.31,0,0,1,0,.07s0,.09,0,.08-.08.33-.1.39a1.86,1.86,0,0,0-.08.23c0,.09,0,.09,0,.18a2.78,2.78,0,0,1-.09.27c0,.06-.09.29-.09.29a2.3,2.3,0,0,1-.08.27l0,.08s-.07.33-.1.39,0-.07-.07.07v0c-.15.38-.5,1.39-.72,1.94,0,0,0,0,0,0l0,.05c0,.09,0,.12,0,.15s0,.12,0,.13-.06.18,0,.18,0,0,0,0v0c0,.06,0,0,0,.06a1.34,1.34,0,0,1-.07.18l0,.08s-.12.31-.09.27h0a.73.73,0,0,1-.06.14l-.12.35c-.05.12,0,0,0,.09s0,0,0,.07l-.1.25-.17.37,0,.06c-.06.14-.12.25-.18.39s-.28.55-.25.5h0l-.26.49-.07.13-.15.26h0c-.22.38-.5.82-.75,1.21l-.12.18a.35.35,0,0,0-.05.08l-.12.18,0,0,0,.05,0,0h0c-.18.24-.34.48-.47.69h0l0,0,0,0,0,0,0,0,0,0,0,0c-.08.14-.21.35-.35.55l0-.05L746,190,746,190l-.05.08h0l-.61.77-.13.13c-.13.14-.18.22-.29.33.23-.24-.34.43-.55.66l-.06.07h0l-1,1c-.4.39-1,.91-1.33,1.25s-.47.4-.56.49l0,0a2.86,2.86,0,0,0-.3.22,2,2,0,0,0-.34.22c-.19.15-.48.34-.71.49a2.46,2.46,0,0,0-.22.17c-.18.11,0,0-.15,0s-.17,0,0-.15h0c.51-.61-.55-.69-.06-1.09s.05-.7.2-1.07a1.65,1.65,0,0,0-.12-1.87c-1.31-1.2,2.3-4,1.33-5.06-.12-.15.09-.27.12-.38.23-.38,0-.76,0-1.18,0-.05,0,0,0-.05s-.05,0,0-.1a1.36,1.36,0,0,0-.09-.42c-.06,0,.07-.21,0-.39s-1.8-2-1.19-2.68a4.8,4.8,0,0,0,.42-.62c-.5-1.26,1.13-2.67-1.28-2.52l-.78.08c-1.52-1.66-2-2-4.15-.78-1.11.61-.83,0-2.12.07-3.22.08-2.82,1.21-5.57-1.53-.63-.63-1-2.64-1.9-3.08-1.89-.93-.08-4.95-.09-8.2a19,19,0,0,1,1.64-2c.06,0,.73-1.1.8-1.1,1,0,.67-1,1.61-1,.51,0,1.22-.71,1.27-.7.78,0,.53-1.53.83-1.82.09-.07,1.65-.9,1.66-.71h0l1-1.25a1.09,1.09,0,0,0,.44.22c.14,0,.4.29.46.23s.22.15.31,0,.19.08.25,0,.22.06.22.05.07.07.07.1a.23.23,0,0,0,.2.14l1-.44v0s0,0,0,0,0,0,0,0v.08l1.87-.25.93.35v0s0,0,.07-.06.07,0,.08,0,0,0,0,0,0-.06.11,0,0,0,.08,0a4,4,0,0,1,.54.07v0s.09,0,.11,0,.08.08.12.08.12,0,.07,0,0-.08.12-.07.29.08.37.18a1.68,1.68,0,0,1,.75.32s-.32.42,0,.47c.77.14-1.24,1.37-.08,1.5a5.12,5.12,0,0,1,3,1.86c1.53,2,.9-1.92,2.07-.39a6,6,0,0,0,1.26.77c.7,1.07,1,.11,1.45.55s.49,0,.57-.25a1.57,1.57,0,0,0-.09-.78c-.44-.23-1-1.14-.31-.82a.74.74,0,0,0,.08.39c.41.52.12,0,.11-.33,0-.6-.31-.66-.48-.52s-.5-.56-.56-.51a.68.68,0,0,1-.91-.25s-.34-.67-.37-.68c-.35-.12-.08-.58-.28-.77,0,0-.2-.06-.2-.08-.1-.38-.32-1-.37-.85s-.26.18-.3,0-.21-.2-.18-.06c.14.54-.8-.33-.12.53a4.85,4.85,0,0,0,.42.44c.54,1.31-.27,0-.06,1a2.18,2.18,0,0,1,.08.33c-.1.14-.12-.19-.36-.25-.5-.14-.29-.93-.29-.93-.3-.25-.65-.51-.62-.69,0,0-.12-.12,0-.09-.42-.12-.45-1.31-.71-1.4-.52-.14-1.56-2-1.75-2-.35-.09-.29-.58-.53-.34-.43.45.41.93.49,1.22a1,1,0,0,0,.83.78c.17.77.89.87.93,1.1.13.62-.19,0-.56-.14-.07,0,.07.4,0,.39.49.13-.43,1.38-.23.65.1-.47-.23-1.3-.58-1.38-.18,0-.25-.43-.32-.45-.47-.1-1.44-1.63-1.76-1.8-.06-.09-.22-.33-.29-.34s0,0-.12,0-.43.12-.44,0c0,.06-.24.3-.3.29a3.44,3.44,0,0,1-1.1-.46c0-.06.07.5-.25.44s-.22.18-.28.17-.42.23-.52,0h0l-1,.81s0,.15,0,.26c0,.38-.35.22-.51.63s-.88.6-1.47.36a.86.86,0,0,0-.92.22c-.28.26-.52-.44-.62-.54a3.26,3.26,0,0,0-.5-.27h0l-.81-.06c.11-.05.11,0,.09-.13s.16,0,.06-.14c.07,0,.05-.11.05-.18s-.05-.08,0-.14,0-.12,0-.12-.09-.07-.1-.07-.06,0,0,0-.09-.19-.15-.29h0c.35-.47.35-.47.71-.93,0-.42,0-.42-.09-.83.09-.06.17-.08.17-.16s0-.12.16-.23.84,0,1.34.05c.25,0,.25.19.46.21a2.87,2.87,0,0,1,1.11.27c.14.08.17,0,.59.2,0-.1,0,0,0-.09s0,0,.08-.06,0,0,0,0,0,0,0,0,0,0,0-.1,0-.17.08-.17-.08-.07.06,0c-.09-.08.05,0,.05,0s.06,0,0,0,.08,0,.11,0-.07-.15-.08-.17,0,0,0-.05,0-.09.06,0a.61.61,0,0,0,0-.15s0,0,0,0l.34-.53s0,0,0,0,0,0,0-.1h0s0-.16,0-.08a.61.61,0,0,0,0-.11,1.27,1.27,0,0,1-.15-.39h0c0-.08,0-.25.08-.24s-.06,0,0,0,0,0,0,0c.12,0,0,0-.09-.1h0l-1.18-.9a3,3,0,0,1,1.23.37c.19.1,1-.08,1.13.21-.05-.16,0-.25.14-.27s.49-.24.69-.19a.16.16,0,0,0,.21-.14h0a2.26,2.26,0,0,1,0-.26l.09,0c.06,0,.14.1.08.08s0,0,.06,0,.06.06,0,0,.05,0,.05,0,0-.07,0-.08.06,0,0,0,0-.07.06,0,0,0,.12,0a.35.35,0,0,1,.18.15s0,0,0,0h0c0,.05,0,0,.07.05s0,0,0,0,0,0,0,0,0,0,0,0l0,0s0,0,0,0,0,0,0,0l0,0s0,0,0,0v0h0a1.66,1.66,0,0,1,0-.22c.18.49.39.24.34.12a.79.79,0,0,1-.06-.34c-.12-.23-.21-.21-.16-.36.07-.38.71.34.5.5a.4.4,0,0,0,.2.44c.21.07.15,0,.14.11s.22.1.23.08.44.39.59.44a1.86,1.86,0,0,1,.28.31c0-.05-.07-.14-.08-.22l.2-.08s.42,0,.37,0c.18.08.28.36.35.28s0-.09.05-.09h0a.21.21,0,0,0,.13-.09s0,0,0,0l0,0s-.06-.08-.06-.08,0-.09,0,0a.9.9,0,0,0-.07-.11s0,0,0,0-.05-.08-.05-.12.05,0,0,0,0-.11-.12-.23.16,0,.27.15c0,0,.35.43.34.36a5.54,5.54,0,0,0-.57-.82c-.22-.31.63.36.67.32.17.18,0-.07,0,0a3.22,3.22,0,0,0-.28-.25s-.23-.2-.37-.27c-.54-.14-1.67-1.46-1.24-1.26.24.15-.75-.64-.45-.36s0,.14,0,.26.38.5.52.63c.49.44,0,.31.09.53.3.57-.3.44-.4.51s-.51-.77-.51-.78c-.2-.08-.22-.34-.15-.28-.38-.16-.15-.35-.38-.54s-.08.4-.86-.1c-.42-.27-.14-.52-.27-.65s-.27-.19-.2-.18.2.09,0-.06.21.06.17,0c-.2-.19.26-.1.27-.11s.24.08.31.13-.06-.07,0,0l0,0h0s0,0,0,0,.06,0,.08,0-.09-.08,0-.06a.71.71,0,0,0,0-.2l.07,0,.06,0a.23.23,0,0,1-.07-.06l0,0c-.07-.05.06,0,0,0s0-.05,0,0l.08.05,0,0,0,0s.08,0,.06,0l.08.05h0c-.06,0,0,0,0,0s0,0,0,0,0,0,0,0l0,0h0ZM712,144.29c.06-.09,0-.16,0-.16a.41.41,0,0,0-.28.15c-.06.09,0,.15.06.15a.36.36,0,0,0,.27-.14Zm-3.48-.94-.12.1-.43.16,0,0c-.08.05-.34.14-.44.21s-.15.06-.16.09-.22.11-.15.06-.19.09-.07,0,.16-.1.08-.06.17-.13.21-.13,0,0,.06,0,.25-.12.32-.17,0,0,.09,0l.21-.12.27-.1s-.23.11-.14.08l.12,0-.05,0h0l.06,0h0l0,0,.08,0h.06l0,0h0Zm-.13.15-.12,0-.06,0-.11.06-.06,0h0l0,0,0,0h-.11l0,0,0,0-.06,0h0l-.06,0,0,0,0,0h0l0,0h0l0,0h.13c-.12,0-.5.17-.33.16s-.13.14.12,0,0,.15,0,0-.68.23-.47.24-.1.12-.08.17a2.24,2.24,0,0,0,.37-.09,4.05,4.05,0,0,0,.61-.21s0,0,0,0,.17.13.32,0-.12-.09.13-.14c.59-.09,0-.21.44-.48.24-.14.15-.19.21-.22s.29-.09.23-.15-.37.15-.37.15-.39.31-.42.24.29-.15.12-.15a1.65,1.65,0,0,1-.24.13c-.33.09.47-.23.11-.13l-.19.09s.26-.15.23-.15Zm1.14-.22h0s.08,0,.11,0h.06s0,0,.07,0-.07.06-.07.07h0l0,0h0l-.07.05s-.06,0,0,0,0,0,0,0h0l0,0s-.06.1-.13.16l0,0h-.09l-.06,0h0l-.11.06c-.08,0-.1,0,0,0v0s0,0,.05,0l0,0h0a1.8,1.8,0,0,1,.05-.19s0,0,0,0h.09l0,0s0,0,0,0h0l0,0h0s0,0,0,0h0l0,0h.07l0,0Zm-.57.86,0-.08h-.17s0,0,0,0,0,0-.06,0l-.05,0s-.06,0,0,0,0,0,0,0l0,0s.13,0,0,0h-.06l0,0h0l0,.05.22,0c-.05,0,0,0,.17,0l0,0s0,0,0,0l0,0a.05.05,0,0,0,0-.05s0,0,0,0h0s-.15,0,0,0Zm2.06-1.58c-.11.08.13,0,.26,0-.09,0,.07,0-.07.07s0,.05,0,.08.39-.09.47-.13.75-.14.4,0-.58.09-.72.23a.44.44,0,0,1-.34,0s-.18,0-.14,0,.12-.21-.07-.19.11-.15.19-.12Zm-.49.27a.36.36,0,0,0-.1.07s-.06,0-.05,0,0,0,0,0,0,0,0,0h0s.11,0,.18,0,0,0,0,0l.05,0s0,0,0,0l.07-.07h0s0,0,0,0h0s0,0,0,0l.06,0-.06,0Zm0-.11s0,0,0,0,0,0,0,0,0,0,0,0-.08.06-.11.07a.21.21,0,0,1-.1.06s-.06,0,0,0-.08.05-.08.05-.25.1-.2.06.13-.07.07-.05,0,0,0,0l-.12,0c-.12,0,0,0,0-.08s.19,0,.24-.06h0s0,0,0,0,0,0,.18-.06Zm-.73.17c.07,0,0,0,0,0,.21-.08,0,0-.07.07s-.4.15-.29.09-.26.09-.32.11-.32.11-.21.06l.23-.09c.11,0,.07-.06,0,0l-.18.06h0l.19-.11,0,0,.09,0h.06l.15,0h0l-.1.07,0,0s0,0,0,0l.14-.05,0,0,.05,0,.08-.06s0,0,0-.05h0l.06,0,.14-.06,0,0h0c.06,0,0,0,0,0h0l-.06,0,.06,0,0,0h0l-.06,0,0,0h0l0,0h-.09l0,0h.06Zm-.16-.09L709,143l0,0h0l-.05,0h0c-.06,0,0,0,0,0l.08,0,.08,0h.07a.27.27,0,0,1,.08,0h0s0,0,0,0h0l-.08.05h0l.08,0,.06,0h0l.14-.06s0,0,0,0h.05l.06,0h0s0,0,0,0Zm1.6-.47-.08.07h0l0,0h.09l.06,0a.18.18,0,0,0,.07,0s0,0,0,0Zm-.5.09s0,0,0,0h0l0,0h0l-.06,0h0s0,0,0,0h0s0,0,0,0h.19a.38.38,0,0,0,.14-.06l0,0c.06,0,.08-.05,0,0s0,0,0,0h0s0,0,0,0,0,0,0,0l0,0s.06,0,0,0l-.15,0h0l-.11,0h0Zm-.5.15h0s0,0,0,0h.09l0,0h0s.09,0,.09,0h0l.06,0h.05s0,0,0,0h0l-.09,0h-.09c-.06,0-.12,0-.09,0Zm-.17.08-.08,0h-.06l0,0-.06,0h-.08s0,0,0,0h0l.06,0h.09l.09,0,.06,0h.06l0,0h0l-.06,0h0Zm3.52-1.13-.48.11c-.09,0-.29.11-.38.12s-.41.14-.41.14-.11.06,0,0l.15,0h0l.59-.16h0l0,0h0l-.06,0h0s0,0,0,0h0s0,0-.06,0h0l-.09,0h0s0,0,0,0h0s-.34,0-.3.07-.18.14-.17.06,0,0,0,0a.91.91,0,0,0-.17,0c-.2.05-.32.18-.23.18s-.34.14-.14.13a.69.69,0,0,0,.45-.17.83.83,0,0,1,.21-.06l0,0h-.06l-.05,0h0a.32.32,0,0,1-.09,0l-.11.05h0l0,0s0,0,0,0h0l.12,0h.06l0,0h.07l0,0h0l0,0a.21.21,0,0,1-.11,0h-.09l-.06,0h-.15s0,0,0,0,0,0,0,0a.17.17,0,0,0,0,.1h0a.35.35,0,0,0-.17.06l.28,0,.25-.1a.34.34,0,0,1,.21-.05s0,0,0,0,0,.07,0,.05.36-.15.32-.18a1.33,1.33,0,0,0-.36.05l.09,0a1.86,1.86,0,0,1,.26-.08.85.85,0,0,0,.28-.11s0-.07,0-.09,0-.07.07-.08a1.65,1.65,0,0,1,.2-.07s0,0,0,0h.1l.19-.08h0s0,0,0,0,0,0,0,0l.15-.06h0l.12,0a.23.23,0,0,0,.11-.06h-.06l-.06,0-.05,0c-.1,0-.26.1-.24.06l.08,0,.21-.07.2,0,.09,0c.06,0,0,0,0,0h0s.06,0,0,0h0l-.15,0h-.06s-.12,0-.09,0h0a.41.41,0,0,1-.12,0s0,0,0,0Zm4.15,7.92c-.82,0-.67.62-.86,1.08-.11.27,0,.42-.24.65s.19.27,0,.35.09.1.23,0l.42-.08c.22,0,.26-.24.4-.31s0,.27.17.18c-.13.32.52,0,.24,0,.06.09.11-.11.16,0s.13-.16.25-.13c.34.07-.19.35,0,.4s.05,0,.07.06.31.07.37.09a3.51,3.51,0,0,1,.24-.61h-.06a0,0,0,0,0,0,0c0,.06-.08,0-.12,0s0,0,0,0l0,0s-.05.06-.06,0,0,0,0,0-.05,0,0-.05,0,0,0,0,.07-.23.07-.26l-.27.31h0c0-.07,0-.37.13-.34s.11-.15-.08-.06-.19-.13-.22-.07c.14-.06.1-.35,0-.3h0a.51.51,0,0,0-.41.09c-.08.06-.31-.08-.32-.14s0-.13-.07-.12,0,.11-.15.12a1,1,0,0,0-.23.15.28.28,0,0,1,0-.12c.19-.4.19-.4.36-.81v0Zm-7.93-4.34-.5.68h0c0,.05.11-.09.15-.07s.06,0,.1,0,0,.07-.07.12.08,0,.12,0,.33-.16.28-.2a0,0,0,0,0,0,0c0-.1,0,0,.12-.09s.17,0,.26,0,.07,0,.14,0,0,0,.06,0,.07.07.14,0,0-.1,0-.12.06-.09,0-.09-.26,0-.23-.05-.09-.06-.1-.09a.15.15,0,0,0-.08,0s0,0,0,0-.15-.05-.11-.1-.1,0-.12-.07-.06-.06-.1,0l-.05,0Zm.11,1c-.14.09-.28.13-.3.08s0-.11.12-.19.26-.12.3-.09,0,.12-.12.2Zm.78.05c.05-.08,0-.14-.1-.14a.34.34,0,0,0-.27.13c0,.08,0,.14.1.15a.35.35,0,0,0,.27-.14Zm.53-.58h0l-.05,0v0H711a0,0,0,0,0,0,0h0l0,0h0l-.06.08.17.06h0s0,0,.06-.07.05,0,.07,0,0,0,0,0,0,0,0,0,0,0,0-.05,0,0-.1,0Zm-.06-2.44c-.4.4,0,.56,0,.24s.88-.54.58-.24c-.1.1.32,0,.18-.09s.92-.28.28,0c-.08,0,0,.09,0,.09.64,0-.05.06.44,0,0,0-.11.21.09.09s-.23.25.37,0c.08,0,0,.14-.07.15-.39.15.66-.21.22.06-.07,0,.72-.23.26,0-.23.14.44,0-.1.19,0,0,.21.07.27.08s.71,0,.79.13-.25.06-.2.11.17,0,.18,0-.26.26.14,0-.08.6-.22.4c0,0,.27.14-.06.21s.18-.44-.29-.25c0,0-.67.12-.36.28s.43.1.46.41c0,.1.51,0,.18.16-.07,0,0,.45-.47.21-.64-.34-.51-.11,0,.16s-1.09.12-1.25-.09.15-.15.09-.15c-.44,0-.5-.44-1-.08-.32.24-.69-.38.13-.37.66,0,.41-.3.43-.31.34-.15,1.19,0,.95-.3-.09-.08-.6.28-.62,0s.47-.23.14-.24-.3-.36-.73-.09c-.07,0,0-.23,0-.25,0-.36-.6.24-1.11,0-.1,0-.89.15-.48,0,.24-.11-.2.06,0-.12-.1.08.57-.17.33-.14-.47,0-.36.06,0-.26s.85-.42.53-.14c-.05,0-.12,0-.05,0Zm-8.42,23.51c.67.42.74-.37,1.37-.4s0,.33.09.44.59,0,.73.07.22.2.4.33.38.12.45.26.17.41.22.47.35-.1.43.05-.25.39-.31.46c-.19.23.76.12.82.1a2.15,2.15,0,0,1,.91.1c.5.1.36-.46-.06-.44-.06,0-.37,0-.38,0s0-.45-.17-.46c-.81-.07-1.55-1-2.13-1.27a1.74,1.74,0,0,0-1.73-.05c-.68.35-.65.36-.64.36ZM713.6,171c-.06.17-.11.13-.23-.05a.75.75,0,0,0-.52-.33.83.83,0,0,0-.27,0,.3.3,0,0,0-.23.11s-.05.1-.08.13,0,0,0,.08a.33.33,0,0,0,.08.11l.21.1a1.21,1.21,0,0,0,.34.08.22.22,0,0,1,.13,0c.07,0,.18,0,.19,0a.52.52,0,0,0,.26,0,.61.61,0,0,0,.19,0s.1-.06.1-.15h0c-.2-.05-.08,0-.15-.07Zm-4.44-1.82c.28.17.1,0,.17.47,0,.14.35.36,0,.3a1.45,1.45,0,0,0-.34-.07c-.13,0-.43-.32-.74-.24s-.12.39.14.44a3.84,3.84,0,0,0,.55,0h.15c-.2.33.38-.08.67.21.14.14.13.58.56.05.26-.31.38,0,.55.06s.24-.23.52,0c.09.06.49.29.54.06s-.14-.16-.22-.19c-.42-.12-.26-.07-.25-.22s.36-.25,0-.17c-.11,0-.45-.41-.72-.49s-.8-.34-.72-.07-.31-.08-.32-.06a2.11,2.11,0,0,1-.23-.19c-.07-.12,0-.12-.15-.08s-.57-.08-.2.14Zm-2.71.14c-.11-.05-.1-.05-.17,0s-.06,0-.09,0,0,0-.05,0,0,.07,0,0v0c0-.1-.06.05-.07,0h0c-.09,0-.19-.13-.27,0s0,.15.06.17,0,.06.08.09.21-.06.1,0h0c-.06,0,.08,0,.12,0s0,.07.08.06,0,0,.06,0,.1-.05.13-.07a.69.69,0,0,1,.13,0c0-.05,0-.06,0-.06s-.09-.05,0,0,0-.14-.09-.18Zm-5.14-21.47a1.31,1.31,0,0,0,.2-.17l.13-.11.25-.22.13-.08.06-.07.08-.06c0,.05-.13.13-.08.1s0,0,.07,0a.79.79,0,0,0,.22-.12s0,0,0,0c.17-.08,0-.06.1-.12s.38-.21.07,0c-.15.11-.18.21-.07.11s0-.06.17-.18a1.27,1.27,0,0,0,.34-.27s-.06,0,.07,0,0,0,.23-.11l0-.06-.16.05,0,0a10.77,10.77,0,0,0,.9-.71c.09-.08.77-.51.33-.17l-.1.07a3.88,3.88,0,0,0-.68.59s-.24.19-.1.12-.41.42-.07.16c.05,0,.06-.07.11-.11.26-.21-.47.56-.14.33s.63-.64,1-.75-.23.25-.22.38a.09.09,0,0,1,0,.05c.32-.12.26-.3.55-.53l.05,0s-.05.08,0,.06l.17-.06s0,0,0,0,0,0,0,0l-.08.05,0,0c-.06,0,0,0-.05,0s0,0,0,0l0,0h0l0,0h0l0,0s.08,0,.06,0v0s0,0,0,0-.09.1,0,.08,0,0,0,0l.06,0c.07,0,0,0,0,0s0,0,.05,0,0,0,0,0a.6.6,0,0,0,.11-.06h0s0,0,0,0,0,0,.06,0l0,0h.1s.1-.06,0,0-.2.12-.13.07,0,0,.1,0,0,0,.07,0c-.17.18-.32.11-.46.22s-.3.09-.47.22a.33.33,0,0,1-.35.09c-.2.2-.58.39-.39.17-.41.47-.15-.05-.4.22-.44.52-.13.13-.54.26l0,0h0l0,0s0,0,0,0,0,0,0,0l0,0h0s0,0,0,0l0,0v0l0,0h0s0,0,0,0h0s0,0,0,0,0,0,0,0,0,0,0,0,.07,0,.09,0h0l-.44.37h0l0,0,0,0h0l-.06,0s0,0,0,0h0l-.08,0,0,0h0l0,0H702l0,0s0,0-.08,0l-.24.06a1.17,1.17,0,0,1,.27,0l-.29.26h0s0,0,0,0h0v0h0l0,0h0s0,0,0,0l0,0-1,.91c-.12.23-.12.23-.21.43a.45.45,0,0,0,.14-.07l0,0s0,0,0,0-.1.16-.09.17,0,.06,0,.05-.17.3-.11.27,0,0,.08,0l.09-.07.32.07,0,0h0s0,0,0,0h.12s0,.08,0,.08,0,0,0,0,0,0,0,0,0,0,0,.05,0,0,0,0l.52,0c0-.05,0,0,.06,0s0,.12,0,.12,0,0,0,0-.15.66-.18.79.07.3,0,.4.26.14.37,0,.17-.38.22-.42-.06-.17,0-.24c-.16,0,.07-.54.07-.54a3,3,0,0,0,1.08-1.09c0-.11-.14-.08-.12-.18.07-.33-.18-.31.23-.68.21-.19.29-.38.15-.37l0,0,.09-.07a2.54,2.54,0,0,1,.15-.44l.46-.06.09-.08v0s0,0,.06,0v0h0l0,0h0l0,0h0l0,0s0,0,.07,0,0,0,.07,0h0s0,0,0,0a1.28,1.28,0,0,1,0,.19s0,0,.06,0h0l0,0s0,0,0,0l.07-.06h0s0,0,0,0h0a.06.06,0,0,1,0,.06l0,0h0s0,0,0,0,.23,0,.27,0,.12,0,.13,0l-.06.11h0l-.05.07s0,0,0,0,0,0,0,0,0,.07-.08.08h0s0,0,0,0h0s0,0,0,0a.33.33,0,0,0-.14.06s0,0,0,0,0,0,0,0,0,.05,0,.05h0l0,0s.06,0,.06,0l0,0a.41.41,0,0,0,.15,0l.06,0s0,0,0,.05,0,0,0,0,0,0,0,0,0,0,0,0,0,0,0,0,0,0,0,0l0,0s0,0,.07,0,0,0,0,0,0,0,0,0h0s0,0,0,0,0,.05-.08.05,0,0,0,0,0,0,0,0,0,0,0,0,0,0-.06,0a.37.37,0,0,1,0,.13h0s.11,0,.15,0,.21,0,.2-.1,0,0,0,0,.12,0,.11.06.18-.08.12,0,.08,0,.12,0,.1,0,.13-.1a1,1,0,0,1,.31-.24,3.48,3.48,0,0,0,.1-.41l.2-.14.06.19c-.06.05.68.66.55.9s1.08.43,1.08.43c-.48.15-1.51,1.1-.66.6.18-.1.92-.77.7-.34a1.27,1.27,0,0,1,.58.17c.36.28-.75.57-.61.84,0,0-.09.12-.16.11-.25,0-.75,1.09-1.49,1a5.11,5.11,0,0,0-1.33.4c-.13.08-.23.39-.54.53a2.54,2.54,0,0,0-.32.33c-.32.37-.32.37-.62.75,0,.15,0,.15-.05.33l0,0a2.39,2.39,0,0,1,.32-.5c.25-.17.4-.49.68-.67,0,0,0,0,0,0h-.07l.23-.14a1,1,0,0,1,.39-.31,1.17,1.17,0,0,0,.3-.11l.7-.41a1.81,1.81,0,0,0,.4,0l0,0,0,0s0,.05,0,.05,0,0,0,0,.1,0,.11,0,.58.43.54.51c-.49,1,1.7.42,1.31,1.3a1.7,1.7,0,0,1-.18.26c-.24.14-.28-.43-.47,0a2.65,2.65,0,0,1-.47.67c-.42.43-.24-.17-.37-.3s-.85.2-.41-.26.35-.81,0-.43h0c.18,0,.33,0,.17.19s-.52.24-.71.43a.64.64,0,0,1-.2.14c-.15.4-.28.86-.58.95s-.39-.09-.3-.37c-.08,0,0-.19.12-.28a6.77,6.77,0,0,1,.49-.8l0,0h0l-.06,0-.22.08a.47.47,0,0,0-.18.13s0,0-.07.06-.19.08-.21.13,0,0,0,0c-.18,0,0,.18-.2.24s0,0-.08.05a.44.44,0,0,1-.17.06c-.07,0-.07,0-.12,0s0,.07-.08,0-.07.1-.07.13l-.22,0,0,0c-.16.37-1,.88-.79,1.51,0,.1,0,0-.1.05-.2.23-1.48.45-1.29,1,0,0-.39,1-.4.32,0-.23-.18.08-.15.23.14.37-.57,1.38-.24.53.07-.19-.26-.39.09-.66s-.35-.11-.25.16-.34.46-.16.65-.29.43.11.49c0,0,0,.17.06.21l-.26,0-.13.34.1-.14h0l0,0s0,0,0,.05,0,0,0,0v0h.06s0,0,0,0,0,0,0,0,0,.07,0,.07,0,0,0,0l-.29.11,0,0s-.05.13,0,.17,0,0,0,0,0,0,.06.05,0,0,0,.08,0,0,0,0,0,0,0,0,0,.09,0,0,0,.08,0,0-.06,0-.1,0,0,0,0,0,0,0-.06-.07,0,0,0,0-.26.14-.22.16c-.34-.09-.23.4-.38.38s-.47.38-.73.59a3.51,3.51,0,0,0-.71.69c-.21.29-.35.94-.21,1.12a1.78,1.78,0,0,1,.1.56c.2.17.12,1.14-.14,1.5s0,.42-.38.32a2.94,2.94,0,0,0-.14-.68c-.07,0,.07-.37-.13-.3s0-.2,0-.26,0-.22.11-.18,0,0,0,0c.07-.24,0-.19-.11-.17a2.38,2.38,0,0,0,.09-.5c-.06-.21-.46-1-.56-.57,0,.16,0,.07,0,0,.08-.27-.17-.11-.17-.36s-.42.11-.47-.11-.24.17-.28,0-.46.07-.46.08.13.27.19.38-.15.15-.16.09,0,0,0,0,0-.14-.07-.06-.06,0-.1.06-.12,0-.08,0,0,0,0-.1,0-.08,0-.08,0,0-.05,0l-.82-.2h0s0,0,0,0c-.17.55-1,.73-.93,1.61a.49.49,0,0,1,0,.11c-.22-.08-.51,1.57-.55,1.89,0,.54.05.88,0,1.32,0,.79.51.64.88.86l.08-.4h0c.37.19.31-.62.56-.87s.3.32.4-.08c0,.06.07.1.05.07.17.3.53,0,.42.45a.48.48,0,0,1-.25.29c-.17.09-.17,1-.38,1.1a3.82,3.82,0,0,0,0-.41c0-.12-.12.2-.12.23s.23.35,0,.58c-.05,0,0,.06-.09,0-.12.27-.12.27-.25.54l.29.28a2.11,2.11,0,0,1,1.23,1.9c0,.18-.37.54-.42.83a2.92,2.92,0,0,0,.61,1.2v0s0,0,.07.06h0s.09,0,.15.08.12.11.16,0,.12,0,.17,0,0-.08.09-.06.28-.56.28-.56a.29.29,0,0,0,0-.15c-.23,0,.35-.67.49-.48,0,0,.07.09.08,0,0-.37.15-.06.46-.32s.36-.44.53-.56l.23-.08s.07,0,.11.09c.09.32-.11.31-.3.43s0,.22,0,.26h0c.14,0,0,.29-.06.36s0,.38-.07.5.06.07.06.14c0,.22.24.17.32.18,0-.26,0-.26.07-.5l-.13-.12-.08-.24c0-.27.62-.53.62-.53s-.13-.28-.13-.44.47.19.2.36c-.06,0,.24-.1.38,0s.24,0,.37.31c.08.19,1,.17,1.15.18-.12,0,.13.3.31.28.65,0,1.06-.73,1.42-.2a.56.56,0,0,0,.56.41c.21,0,.67.17.43.44,0,0,.1.22.08.25s1.09,0,1.11.52c0,.11.17.23.22.34s-.06.31,0,.3c.43-.08.73.5.85.51a8.65,8.65,0,0,1,1,0s.27,0,.21.13c.29,0,.79-.17,1,.23,0,.07.36.19.48.3l.28.27s.32.11.23.26c.1.09.39.5.32.51.29,0,.39.92.59.93s.12.13.16,0c.23.24.12.55-.14.54-.1,0-.5.47-.5.47s-.57.46-.45.69-.12.16-.44.27a.27.27,0,0,0,.18.37s.21.53.39.51-.13-.56-.08-.59.31-.5.51-.5.27,0,.26-.07c0-.27,0-.21,0-.27s1.52-.11,1.49.21c0,.12-.28.25-.28.31a3,3,0,0,1-.34.2,10.93,10.93,0,0,1-1.15.06c-.22.38,1,.05,1,.27-.23.29-.19.78.3,0,.07-.08.38-.06.37-.31,0-.41.63-.65,1-.3a4.57,4.57,0,0,0,.56.35c.17,0,.25.05.25.21s0,.24.38,0c0,0,0,0,0-.05s.32.09.26.25-.1.58-.22.58c.14,0,.06.14.29.08s.57-.47.87-.18c.5.5,1.63.27,2.18.54a2,2,0,0,1,.86.71,3.32,3.32,0,0,0,1.83,1c.92.08-.14,2.95-.77,3.14,0,.06-.32.14-.38.14a2.22,2.22,0,0,0-.42.57c0,.18-.33.3-.32.41,0,.32-.51,0-.51-.12s0-.06,0,0,0,.17,0,.31,0,0-.05.14.17,0,0,.15a1.07,1.07,0,0,0-.07.19,1.72,1.72,0,0,1,0,1.2c-.18.15,0,.37-.07.42s-.06,0,0,0,0,0,0,0a7.39,7.39,0,0,1-1.22,1.75c-.09.07,0,.45-.08.54s-.62-.19-.63.31c0,0,0,.1-.09.12l-.43-.06c-.09,0,0-.06-.07-.06s0-.13,0-.22,0,.07-.09.12-.17-.07-.15,0-.07,0-.12,0-.53.07-.54,0c0,.14-.09,0-.08.11l-1.06.24c.07,0,0,0,0,.07s-.11.25-.45.21c-.18,0-.41.5-.43.49s.13.33.16.52-.1.09-.08.17c0,.28-.5.3-.48.41s-.13.36-.17.2l0,.07-.24,0c-.06,0,0,0-.07,0s0,0,0,0l-.22,0s.08,0,0,0,0,0,0,0-.08,0-.08,0,0,0,0,0l0,0s0,0,0,0,0,0,0,0,0,0,0,0-.05,0,0,0l0,0-.39.7a4.73,4.73,0,0,1-.37.4l0,.09c0,.06-.09.08-.1,0,0,.09-.09,0-.13.08s-.26-.06-.27,0a1,1,0,0,1-.59-.25c-.06,0-.12-.09-.17-.07s-.3-.21-.49-.26c-.35-.07,0,.2,0,.21.29.24.65.3.49.41s.14.16.14.17c.23.05.17.35.14.37s0,.1-.2.08h0l-.92,0a4.92,4.92,0,0,1-.59-.22c-.14.07.31.24.18.28s.11.17,0,.2-.42,0-.71-.21c-.13-.07-.14,0,0,.09s.06.07.1.13.05,0,.1,0,.09,0,0,0-.08,0,.1.06.09,0,.14,0,.13.09.14.12,0,0-.07,0-.5-.27-.22-.08.15.1.16.2,0,0,0,0,0,0,0,0,.09.1.06.09,0,0,0,0,0,.05,0,0h0l-.31,0h0s0,0,.07.06,0,0,0,0l.06,0h0l.08.05.47.22,0,0s0,0,0,0,0,0,0,0h0s0,0,0,0h0l.06,0s0,0,.05,0h0l-.22,0h0l0,0h0l0,0h0l0,0h0l0,0,.05,0,0,0,0,0h-.08l0,0-.13-.07h0l.19.09a.76.76,0,0,0,.16.09h0c-.54-.27-1.06-.56-1.58-.86h0l-.05,0c-.13-.08-.11-.06-.08,0h0l-.16-.1h0l.08.05c-.18-.11,0,0-.15-.1s-.15-.11-.2-.14l-.08,0c.11.06-.07-.06-.1-.07a2.45,2.45,0,0,1-.36-.25l.16.1.15.11h0a.11.11,0,0,0,0,0c-.1-.08,0-.06-.14-.14l.14.08a.43.43,0,0,0-.07-.07c-.07-.05.11.07.09,0l-.08,0-.28-.19,0,0s-.07-.07,0-.05h0l-.13-.09.09,0s0-.06,0-.06-.16-.15-.14-.17.17,0-.06-.08-.06,0-.15-.05,0,0-.12,0-.31-.25-.26-.27-.24-.2-.08-.1h0l-.16-.2h.05l-.05-.05,0,0,0,0s0,0,0,0,0,0,0,0h0l0,0h0a1.29,1.29,0,0,1-.13-.18s-.23-.12-.16-.15,0-.07,0-.07-.09-.14-.08-.15.05,0,0-.06a1.84,1.84,0,0,0-.39-1c.13,0-.23-.32-.27-.41-.1-.24,0-.44,0-.41-.26-.24-.25-.34-.4-.47s.11-.6-.26-1c.09,0,0-.12,0-.22s.08-.24,0-.36,0-.24-.08-.24-.28-.18-.16-.35.06-.32-.05-.37.09,0,0-.07-.19-.57-.25-.59,0-.15,0-.16,0,0,0-.09,0-.11,0-.08c-.2-.22-.1-.39-.38-.67a7,7,0,0,0-1.25-1.13c-.07,0-.06,0-.17-.11h0a0,0,0,0,0,0,0,3.79,3.79,0,0,1-1-.8c-.34-.4-.36-1.23-.84-1.62a16.56,16.56,0,0,1-.95-1.65s-.33-.37-.33-.4a1.44,1.44,0,0,0-.37-.63h0l-.19-.16c-.13,0-.09-.39-.19-.5-.43-.5.3-1.09,0-1.64-.13-.31.11.22,0,.18-.51-.09-.23-.88-.26-1.15-.12-1.27.38-.59.35-.91,0,0-.07-.24.08-.22s-.06-.34-.05-.37.1-.11.24-.08.14-.74.15-.74c.18-.67-.53-.8-.09-1,.18-.07,0-.3-.13-.57-.06,0-.1,0-.09-.15a2,2,0,0,1-.11-.2c-.07,0-.1-.13-.13-.25a1.13,1.13,0,0,0-.05-.2c0-.05,0,0,0-.05v0a.49.49,0,0,1-.61-.52c.05-.33-.3-.19-.25-.57,0-.06-.07.14-.1.08a1.91,1.91,0,0,1-.2-1.05c.06-.44-.46-.29-.14-.94.07-.13-.06-.24-.14-.19s-.06.09-.11.06,0-.11-.1,0c-.31.34-.79-1.12-.87-1.27a3.68,3.68,0,0,1-.18-.59c.05-.28-.25-.57-.25-.57-.22.51-.59-.08-.65-.51,0,0-.08-.1-.08-.13v0l-.19-.72v0h0l0-.07h0v0h0v0h0s0,0,0,0h0v-.06h0l-.14.17c0-.71,0-.71,0-1.42v0s0,0,0,0,0-.06,0-.06v0h0s0-.09,0-.12h0v0s0,0,0,0v0s0,0,0,0h0s0,0,0,0,0-.06,0-.06a3.09,3.09,0,0,1,.08-.33c.08-.6.08-.6.18-1.21a.76.76,0,0,1,0-.16s0,0,0,0h0v0h0v-.06l0-.06a.22.22,0,0,1,0-.06l0-.06,0-.06v0h0l0-.12h0s0,0,0,0,0,0,0,0l0-.33a.41.41,0,0,0,0-.09h0s0-.12,0-.12,0,0,0,0,0,0,0,0v0h0a1,1,0,0,0,0-.15v-.06s0-.06,0-.06h0a7,7,0,0,0,.22-.8l.18-.56c0-.09.2-.58.21-.58s.13-.41.09-.3c-.14.38-.14.38-.29.75l-.28.88c0,.15,0,.15-.1.33a1.05,1.05,0,0,0-.06.24c0-.09,0,0,0,0s-.06.21-.1.3l0,.18a4.19,4.19,0,0,0-.12.48s0,.11,0,.11,0,0,0,.13l-.12.54v0h0l0,.06v0h0v0s0,0,0,0,0,0,0,0h0l0-.06c.05-.27.05-.27.11-.57s.05-.22.09-.43h0l0-.14s.08-.27.09-.33l0-.06,0-.09a.07.07,0,0,1,0-.06.41.41,0,0,1,0-.09,1.79,1.79,0,0,1,.09-.32h0l.09-.26h0a.82.82,0,0,0,0-.14l.08-.24,0-.06,0-.09a.59.59,0,0,1,0-.08h0a30.92,30.92,0,0,1,9.36-13.48h0l.23-.19h0l-.15.12,0,0s0,0,0,0h0l0,0h0l-.14.13-.08.07,0,0Zm3.38-.74-.55.09h0c0-.09.06-.12,0-.06s0,0,0,0l-.05,0a1,1,0,0,0-.21.12l0,0s0,0,0,0-.06.07,0,.09h0l.09,0c.07,0,.17-.11.24-.12h.1s0,0,0,0h.06s0,0,0,0,.1-.06.11-.05l0,0h.07s0,0,.11,0,0,0,0,0,0,0,0,0a.34.34,0,0,0,0-.1Zm.52-1.95c-.24.15,0,0,0,.08s0,0-.16.1l-.23.15c-.09.08-.15.11,0,.06l.27-.16c.17-.06-.38.26-.21.19l.32-.18c.1-.08.14-.06.26-.1a1.23,1.23,0,0,0,.36-.23,1.76,1.76,0,0,0-.3.1l0,0h0s0,0,0,0l.06,0,0,0,0,0a.08.08,0,0,0,.05,0h0s0,0,0,0h0l0,0,0,0,0,0h0l0,0h-.07l-.11.06h0l0,0-.06,0-.11,0h-.06s0,0,0,0h0l0,0s0,0-.06,0Zm4,8.95-.21,0h0c0-.11-.14,0-.15,0s-.05,0-.08,0-.2.05-.24.06-.29.06-.27.18v0c-.09.2,0,.3.14.26s.44.08.57,0,.3-.11.41-.17.07-.08.19-.2c.05.1.12-.13.09-.14s-.07,0,0,0-.07-.11-.12-.07l-.24,0Zm-1.05.68-.42.11-.39-.06-.47.33-.44-.11,0,0h0s-.09.23-.09.29,0,0,0,.08,0,.1.08.11,0,0,0,0,.25.11.36,0a.31.31,0,0,1,.13-.06s.06,0,.08,0,.09-.07.1-.06,0-.07.09-.09.07,0,.11-.1.06,0,0,0,0,.13.08.06.08,0,.12,0a.3.3,0,0,1,.1,0s.09,0,.12,0,.13-.08.19-.1.11-.07.1-.08.07,0,.1-.11.13-.14.07-.15,0-.14-.08-.06Zm-3-2.18-.09.05c-.09,0,.06.06.08.13s.09.28.4.08-.26.27,0,.31-.12.2.08.25a.17.17,0,0,1,.1,0l.24-.15h0c0-.22,0-.22,0-.45s-.31,0-.32-.09-.18-.16,0-.37-.12,0-.1-.07a.78.78,0,0,1-.42.26l-.07,0Zm10.64-11.55.14-.05a2.88,2.88,0,0,1,.4-.09c.06,0,.32.09.28,0s0-.1.2-.09a1.66,1.66,0,0,0,.44.05,5.82,5.82,0,0,1,.85.09c.16.06.95.06.93.09s-.24.13-.06.09c.57-.11-.08.12-.08.17.08.22.61,0,1,.07s.31.21.1.14c-.49-.14-.89.12-.65.07s.21,0,.13.14a.62.62,0,0,0,.35-.05c.14-.15,1-.2.53,0a5.45,5.45,0,0,0-.36,1.06c.07.21-.88.56-.73.7s.61,1.78.16,1.7-.7-.42-.6,0a6.28,6.28,0,0,1-1.1-.49c-.15-.06-.65-.32-.55-.36s-.36-.48-.36-.47c0,.19-.12-.25-.12-.25-.25.36-.31-.11-.05-.09-.79-.06.1-.11-.11-.12s-.1-.13,0-.26,0-.08-.06-.16-.31-.25-.28-.12c.08.59-1.14-.18,0-.16.21,0-.49-.23-.54-.15a2.36,2.36,0,0,0-2-.36c-.53.13.15-.24.12-.23-1.13.23-.28-.11-.09-.13s.37-.13.3-.14c-.4,0,.17-.24.5-.29s0-.06.17-.09a8.45,8.45,0,0,1,1.41-.37c.42,0-.81.2-.29.14Zm20.6,5.1c-.14-.22-.44-.17-.42-.08s-.09,0-.07.05a.41.41,0,0,1-.08.1c-.07.05.24.38.16.4s-.06.15,0,.18-.07.17,0,.23l.5.16a.82.82,0,0,1-.07.28h.1a.86.86,0,0,0,0,.28s0,0,0,0-.16-.16-.2-.15c-.21,0-.24.34-.21.4-.05-.13-.2.05-.21,0-.21.14.54.57.71.45a.65.65,0,0,1-.66.13c-.36-.07-.27.34.16.25.09,0,.47,0,.45-.09.05.17.77.27,1,.32a1,1,0,0,0,.28,0l-.21-.14v-.09l0,0s0,0,.1,0,.16,0,.24,0,.2-.05.06-.18c0,0,.21,0,.1-.09s0,0-.08,0-.11,0-.14-.09l-.4,0h0s0,0,0,0,0,0,0,0h0s0,0,0-.05a2,2,0,0,0,.35-.06h0v0h0s0,0,0,0,0,0,0,0l0,0,0,0s0,0,0,0,0,0,0,0h-.06l-.08-.39h0s0,0,0,0-.24-.1-.26-.18,0-.26-.17-.36-.13,0-.2-.06,0,0-.05,0-.14,0-.12-.08a1.24,1.24,0,0,1,.18,0s.08,0,.06,0a.13.13,0,0,0,0-.1s0-.06,0-.08.13.07.06,0c.14,0,.17,0,.18,0l.05,0s.09,0,0-.1-.09-.08-.21-.12-.08,0-.23,0l-.06,0c-.2-.05-.06-.12-.09-.18s.17,0,0-.1Zm-1.64.34s0,.09,0,.1h0s0,0,0,0h-.06s-.19-.07-.18,0h0s0,0,0,0l0,0h0v0s0,0,0,0h0s0,0,0,0,0,0,0,0h0s0,0,0,0h0s0,0,0,0l0,0c-.08,0,0,0,0,0s0,0,0,0h0s0,.09,0,.09l.22.06h0l.11,0-.2.14s0,0,0,0l0,0h0l0,0s0,0,0,0h0c0,.05.07.09,0,.07l-.2,0s0,0,0,0,0,0,0,0,0,0,0,0h0s0,0,0,0v0h0s0,.09,0,.11,0,0,0,0,0,0,0,0c.33,0,.33,0,.65,0l.54.21,0,0s0,0,0,0,0-.08,0-.13,0,0,0,0a1.82,1.82,0,0,1-.12-.35s.05,0,0,0,0,0,0,0l0,0h0s0,0,0,0,.25.13.21,0,0,0,0,0,0,0,0,0a.27.27,0,0,1-.05-.13l-.72-.28Zm-2.24-3.7c-.07,0-.09,0-.07,0s.05,0,.07.07.06,0,.08,0l.17.08-.17,0c-.22,0,0,0,0,.11s-.1,0,0,0l.19.1a1.18,1.18,0,0,1,.15.11l1.23.37h0c.2.08.5.07.12-.11s-.22-.27-.42-.27-.2-.14-.34-.13a1.72,1.72,0,0,1-.25-.11l-.34-.15a3.52,3.52,0,0,1-.33-.15c-.08,0,0,0-.09,0Zm8,11.43c0,.06,0,.1,0,.1s0,.15,0,.19,0,.1,0,.16.08.1.09.09.1.09.1.05h0s0,0,0,0,.06,0,.08,0,0,0,0,0,0,0,0-.06a.09.09,0,0,1,0-.05c0-.06,0,0,0-.08s0-.38-.15-.41-.18,0-.18,0Zm0,.94c-.17,0,0,.08-.14.06,0,0,.06.14,0,.13s.08,0,.09.12.06.11.14.2-.07,0,0,.06,0,0,0,.06,0,.16.07.17a.08.08,0,0,0,.07,0c.05-.16.16-.08.14-.26s.15-.1,0-.29,0-.08,0-.13-.21-.22-.19-.14,0,0,0,0-.1,0-.14,0Zm2,2.3c-.11.19.2.38.57.65.1-.17.28-.23.11-.67a.73.73,0,0,1-.68,0Zm6.27,27.07c.06-.14.06-.14.13-.28-.11.19-.08,0-.08,0l0,0s0,0,0,0v0l0,0h0s0,0,0,0l0,0-.09.16c-.26.61.12.09-.29,1.11a.22.22,0,0,0,.1-.08s0,0,0,0l0,0s0-.09.06-.11a.17.17,0,0,1,0-.07c0-.05,0,0,0,0s0,0,0-.09,0,0,0,0,0,0,0-.06,0,0,0,0a.59.59,0,0,0,0-.08c0-.06,0-.08.06-.14s0,0,0,0l0-.06c0-.06,0,0,0-.06s0,0,0-.06,0,0,0,0l0-.05,0,0v0s0,0,0,0,0-.09,0-.09Zm-.33-2.51-.1,0c-.14.1-.18.71-.17.84s-.24.82-.09.76.19.62.09.83,0,.14.1.05a.73.73,0,0,0,.06-.14c0-.45.15-1.3,0-1.42.19-.46,0-.62.09-1Zm-1.49-24.91c.43.6.38.06.51.13l.07,0c.36.54.39-.08.63.07.46.3,1,1.3,1.23,1.16a9.73,9.73,0,0,0-1.1-1.89c-.34-.29,0-.33-.23-.54s0-.12-.1-.29l0,0a.21.21,0,0,0-.08-.06l-.26,0c.07.06.14.37.25.35s0,0,0,0,0,0,.06,0,0,.12,0,.16-.09-.05-.1,0-.09.16-.14,0v0l0,0v-.06l0,0,0-.06s0,0,0,0l0,0,0,0a.21.21,0,0,0-.12,0v0h0s0,0,0,0l0-.08h0s0,0,0,0l0-.06h0v0a.42.42,0,0,1,.07-.15l0,0,0,0h0c0-.05,0-.09-.06-.11s0,0,0,0l0,0h0s0,0-.05,0,0,0,0,0,0,0,0,0h0s0,0,0,0l0,0,0-.06s0,0,0-.09l0,0a.35.35,0,0,0-.05-.08h0l0,0s0,0,0,0,0,0,0,0h0v0s0,0,0,0,0,0,0,0,0,.05,0,0,0,0,0,0,0,0,0,0l-.09,0s0,0,0,0l.12.63c0-.09-.08-.05-.09-.05s0,0,0,.08,0,.09,0,.09a.81.81,0,0,0,.14.34s0,0,0,0c-.24-.12,0,.69.28.81,0,0,0,0,0,0s0,0,.09.12-.09.08-.13.07a.09.09,0,0,1-.11,0S746.91,157.06,746.88,157.11Z"/><path class="cls-3" d="M721.45,139.37a32.07,32.07,0,1,0,32.07,32.07A32.07,32.07,0,0,0,721.45,139.37Zm0,62.78a30.71,30.71,0,1,1,30.7-30.71A30.71,30.71,0,0,1,721.45,202.15Z"/><path class="cls-4" d="M573.65,204H498.28a7.75,7.75,0,0,1-7.74-7.74V143.16a7.75,7.75,0,0,1,7.74-7.74h75.37a7.75,7.75,0,0,1,7.74,7.74v53.12A7.76,7.76,0,0,1,573.65,204Zm-75.37-66.4a5.55,5.55,0,0,0-5.54,5.54v53.12a5.55,5.55,0,0,0,5.54,5.54h75.37a5.55,5.55,0,0,0,5.54-5.54V143.16a5.55,5.55,0,0,0-5.54-5.54Z"/><path class="cls-4" d="M575.45,197.58h-79V141.86h79Zm-77-2h75v-51.7h-75Z"/><rect class="cls-4" x="520.99" y="202.92" width="29.95" height="14.1"/><rect class="cls-4" x="505.33" y="214" width="61.27" height="3.02"/><rect class="cls-4" x="595.75" y="202.85" width="31.24" height="3.98" transform="translate(1222.75 409.68) rotate(180)"/><rect class="cls-4" x="595.75" y="196.58" width="31.24" height="3.98" transform="translate(1222.75 397.14) rotate(180)"/><rect class="cls-4" x="599.43" y="192.3" width="23.88" height="1.99" transform="translate(1222.75 386.59) rotate(180)"/><rect class="cls-4" x="593.75" y="209.16" width="35.24" height="1.99"/><path class="cls-4" d="M628.39,217h-34a6.85,6.85,0,0,1-6.85-6.85V110.75a6.86,6.86,0,0,1,6.85-6.86h34a6.86,6.86,0,0,1,6.85,6.86v99.41A6.85,6.85,0,0,1,628.39,217Zm-34-109.9a3.64,3.64,0,0,0-3.64,3.64v99.41a3.64,3.64,0,0,0,3.64,3.64h34a3.64,3.64,0,0,0,3.64-3.64V110.75a3.64,3.64,0,0,0-3.64-3.64Z"/><path class="cls-4" d="M611.44,166a3.21,3.21,0,1,1,3.21-3.21A3.21,3.21,0,0,1,611.44,166Zm0-5.35a2.14,2.14,0,1,0,2.14,2.14A2.14,2.14,0,0,0,611.44,160.63Z"/><polygon class="cls-4" points="593.75 112.62 593.75 142.35 598.11 147.97 624.64 147.97 629 142.35 629 112.62 593.75 112.62"/><path class="cls-4" d="M624,185.06H598.73V153.65H624Zm-23.88-1.41h22.47V155.06H600.14Z"/><polygon class="cls-4" points="632.03 149.63 629 154.36 629 181.11 633.1 187.15 633.64 149.63 632.03 149.63"/><polygon class="cls-4" points="590.72 149.63 593.75 154.36 593.75 181.11 589.64 187.15 589.1 149.63 590.72 149.63"/><path class="cls-5" d="M471.08,356.1H440.47a6.28,6.28,0,0,1-6.28-6.27V266.62a6.29,6.29,0,0,1,6.28-6.28h30.61a6.29,6.29,0,0,1,6.28,6.28v83.21A6.28,6.28,0,0,1,471.08,356.1Zm-30.61-92.93a3.45,3.45,0,0,0-3.45,3.45v83.21a3.45,3.45,0,0,0,3.45,3.45h30.61a3.46,3.46,0,0,0,3.46-3.45V266.62a3.46,3.46,0,0,0-3.46-3.45Z"/><rect class="cls-5" x="441.59" y="345.54" width="28.37" height="2.82"/><rect class="cls-5" x="441.59" y="337.16" width="28.37" height="2.82"/><rect class="cls-5" x="441.59" y="332.57" width="28.37" height="2.82"/><rect class="cls-5" x="441.59" y="305.55" width="28.37" height="2.82"/><rect class="cls-5" x="441.59" y="272.38" width="10.31" height="24.31"/><path class="cls-5" d="M383.24,356.1H352.62a6.27,6.27,0,0,1-6.27-6.27V266.62a6.28,6.28,0,0,1,6.27-6.28h30.62a6.28,6.28,0,0,1,6.27,6.28v83.21A6.27,6.27,0,0,1,383.24,356.1Zm-30.62-92.93a3.46,3.46,0,0,0-3.45,3.45v83.21a3.46,3.46,0,0,0,3.45,3.45h30.62a3.46,3.46,0,0,0,3.45-3.45V266.62a3.46,3.46,0,0,0-3.45-3.45Z"/><rect class="cls-5" x="353.75" y="345.54" width="28.37" height="2.82"/><rect class="cls-5" x="353.75" y="337.16" width="28.37" height="2.82"/><rect class="cls-5" x="353.75" y="332.57" width="28.37" height="2.82"/><rect class="cls-5" x="353.75" y="305.55" width="28.37" height="2.82"/><rect class="cls-5" x="353.75" y="272.38" width="10.31" height="24.31"/><path class="cls-5" d="M208.18,356.1H177.56a6.28,6.28,0,0,1-6.28-6.27V266.62a6.29,6.29,0,0,1,6.28-6.28h30.62a6.28,6.28,0,0,1,6.27,6.28v83.21A6.27,6.27,0,0,1,208.18,356.1Zm-30.62-92.93a3.46,3.46,0,0,0-3.45,3.45v83.21a3.46,3.46,0,0,0,3.45,3.45h30.62a3.46,3.46,0,0,0,3.45-3.45V266.62a3.46,3.46,0,0,0-3.45-3.45Z"/><rect class="cls-5" x="178.68" y="345.54" width="28.37" height="2.82"/><rect class="cls-5" x="178.68" y="337.16" width="28.37" height="2.82"/><rect class="cls-5" x="178.68" y="332.57" width="28.37" height="2.82"/><rect class="cls-5" x="178.68" y="305.55" width="28.37" height="2.82"/><rect class="cls-5" x="178.68" y="272.38" width="10.31" height="24.31"/><path class="cls-5" d="M297.51,356.1H266.89a6.27,6.27,0,0,1-6.27-6.27V266.62a6.28,6.28,0,0,1,6.27-6.28h30.62a6.28,6.28,0,0,1,6.27,6.28v83.21A6.27,6.27,0,0,1,297.51,356.1Zm-30.62-92.93a3.46,3.46,0,0,0-3.45,3.45v83.21a3.46,3.46,0,0,0,3.45,3.45h30.62a3.46,3.46,0,0,0,3.45-3.45V266.62a3.46,3.46,0,0,0-3.45-3.45Z"/><rect class="cls-5" x="268.02" y="345.54" width="28.37" height="2.82"/><rect class="cls-5" x="268.02" y="337.16" width="28.37" height="2.82"/><rect class="cls-5" x="268.02" y="332.57" width="28.37" height="2.82"/><rect class="cls-5" x="268.02" y="305.55" width="28.37" height="2.82"/><rect class="cls-5" x="268.02" y="272.38" width="10.31" height="24.31"/><path class="cls-5" d="M115.24,356.1H84.62a6.28,6.28,0,0,1-6.27-6.27V266.62a6.29,6.29,0,0,1,6.27-6.28h30.62a6.29,6.29,0,0,1,6.28,6.28v83.21A6.28,6.28,0,0,1,115.24,356.1ZM84.62,263.17a3.46,3.46,0,0,0-3.45,3.45v83.21a3.46,3.46,0,0,0,3.45,3.45h30.62a3.45,3.45,0,0,0,3.45-3.45V266.62a3.45,3.45,0,0,0-3.45-3.45Z"/><rect class="cls-5" x="85.75" y="345.54" width="28.37" height="2.82"/><rect class="cls-5" x="85.75" y="337.16" width="28.37" height="2.82"/><rect class="cls-5" x="85.75" y="332.57" width="28.37" height="2.82"/><rect class="cls-5" x="85.75" y="305.55" width="28.37" height="2.82"/><rect class="cls-5" x="85.75" y="272.38" width="10.31" height="24.31"/><rect class="cls-6" x="296.69" y="170.81" width="4.37" height="4.37"/><rect class="cls-6" x="296.69" y="176.42" width="4.37" height="4.37"/><rect class="cls-6" x="289.91" y="170.81" width="4.37" height="4.37"/><rect class="cls-6" x="289.91" y="176.42" width="4.37" height="4.37"/><rect class="cls-6" x="283.24" y="170.81" width="4.37" height="4.37"/><rect class="cls-6" x="283.24" y="176.42" width="4.37" height="4.37"/><rect class="cls-6" x="276.34" y="170.81" width="4.37" height="4.37"/><rect class="cls-6" x="276.34" y="176.42" width="4.37" height="4.37"/><rect class="cls-6" x="269.56" y="170.81" width="4.37" height="4.37"/><rect class="cls-6" x="269.56" y="176.42" width="4.37" height="4.37"/><rect class="cls-6" x="262.89" y="170.81" width="4.37" height="4.37"/><rect class="cls-6" x="262.89" y="176.42" width="4.37" height="4.37"/><rect class="cls-6" x="256.11" y="170.81" width="4.37" height="4.37"/><rect class="cls-6" x="256.11" y="176.42" width="4.37" height="4.37"/><rect class="cls-6" x="249.44" y="170.81" width="4.37" height="4.37"/><rect class="cls-6" x="249.44" y="176.42" width="4.37" height="4.37"/><path class="cls-6" d="M358.43,177.25h-40a1.5,1.5,0,0,1,0-3h40a1.5,1.5,0,1,1,0,3Z"/><path class="cls-6" d="M373.34,186.53H242.12V165H373.34Zm-129.22-2H371.34V167H244.12Z"/><path class="cls-6" d="M640.08,356.86H587.56v-12.4h52.52Zm-50.52-2h48.52v-8.4H589.56Z"/><rect class="cls-6" x="621.86" y="350.66" width="3.1" height="3.1"/><rect class="cls-6" x="631.05" y="350.66" width="3.1" height="3.1"/><rect class="cls-6" x="626.45" y="350.66" width="3.1" height="3.1"/><path class="cls-6" d="M610.44,351.66h-18a1,1,0,0,1,0-2h18a1,1,0,0,1,0,2Z"/><path class="cls-6" d="M640.08,346.46H587.56v-12.4h52.52Zm-50.52-2h48.52v-8.4H589.56Z"/><rect class="cls-6" x="621.86" y="340.26" width="3.1" height="3.1"/><rect class="cls-6" x="631.05" y="340.26" width="3.1" height="3.1"/><rect class="cls-6" x="626.45" y="340.26" width="3.1" height="3.1"/><path class="cls-6" d="M610.44,341.26h-18a1,1,0,0,1,0-2h18a1,1,0,0,1,0,2Z"/><path class="cls-6" d="M640.08,336.06H587.56v-12.4h52.52Zm-50.52-2h48.52v-8.4H589.56Z"/><rect class="cls-6" x="621.86" y="329.86" width="3.1" height="3.1"/><rect class="cls-6" x="631.05" y="329.86" width="3.1" height="3.1"/><rect class="cls-6" x="626.45" y="329.86" width="3.1" height="3.1"/><path class="cls-6" d="M610.44,330.86h-18a1,1,0,0,1,0-2h18a1,1,0,0,1,0,2Z"/><line class="cls-7" x1="685.1" y1="171.44" x2="639.08" y2="171.44"/><line class="cls-7" x1="485.36" y1="171.44" x2="378.92" y2="171.44"/><line class="cls-7" x1="611.37" y1="319.39" x2="611.37" y2="222.81"/><line class="cls-7" x1="282.2" y1="253.47" x2="282.2" y2="194.29"/><polyline class="cls-7" points="611.37 361.4 611.37 416.11 282.2 416.11 282.2 361.4"/><polyline class="cls-7" points="99.93 361.4 99.93 400.44 455.78 400.44 455.78 361.4"/><line class="cls-7" x1="367.93" y1="361.4" x2="367.93" y2="400.44"/><line class="cls-7" x1="192.87" y1="361.4" x2="192.87" y2="400.44"/><polyline class="cls-7" points="99.93 253.47 99.93 224.67 455.78 224.67 455.78 253.47"/><line class="cls-7" x1="192.87" y1="253.47" x2="192.87" y2="224.67"/><line class="cls-7" x1="367.93" y1="253.47" x2="367.93" y2="224.67"/><text class="cls-8" transform="translate(234.96 152.29)">10/100 MB/s Ethernet Switch</text><text class="cls-8" transform="translate(56.17 349.15) rotate(-90)">Compute Nodes</text><text class="cls-8" transform="translate(702.31 130.3)">Internet</text><text class="cls-8" transform="translate(656.14 335.06)">Network Disk<tspan x="13.47" y="13.54">Storage</tspan></text></svg>